<?xml version="1.0" encoding="UTF-8" standalone="no"?>
<!DOCTYPE svg PUBLIC "-//W3C//DTD SVG 1.1//EN"
 "http://www.w3.org/Graphics/SVG/1.1/DTD/svg11.dtd">
<!-- Generated by graphviz version 2.43.0 (0)
 -->
<!-- Title: %3 Pages: 1 -->
<svg width="1890pt" height="627pt"
 viewBox="0.00 0.00 1889.58 627.47" xmlns="http://www.w3.org/2000/svg" xmlns:xlink="http://www.w3.org/1999/xlink">
<g id="graph0" class="graph" transform="scale(1 1) rotate(0) translate(4 623.47)">
<title>%3</title>
<polygon fill="white" stroke="transparent" points="-4,4 -4,-623.47 1885.58,-623.47 1885.58,4 -4,4"/>
<!-- 1042782871537545821 -->
<g id="node1" class="node">
<title>1042782871537545821</title>
<ellipse fill="none" stroke="black" cx="939.79" cy="-516.92" rx="30.59" ry="30.59"/>
<text text-anchor="middle" x="939.79" y="-513.22" font-family="Helvetica,sans-Serif" font-size="14.00">sum</text>
</g>
<!-- &#45;2904961087117093830 -->
<g id="node2" class="node">
<title>&#45;2904961087117093830</title>
<polygon fill="none" stroke="black" points="966.79,-619.47 912.79,-619.47 912.79,-583.47 966.79,-583.47 966.79,-619.47"/>
</g>
<!-- 1042782871537545821&#45;&gt;&#45;2904961087117093830 -->
<g id="edge1" class="edge">
<title>1042782871537545821&#45;&gt;&#45;2904961087117093830</title>
<path fill="none" stroke="black" d="M939.79,-547.72C939.79,-556.07 939.79,-565.1 939.79,-573.29"/>
<polygon fill="black" stroke="black" points="936.29,-573.44 939.79,-583.44 943.29,-573.44 936.29,-573.44"/>
</g>
<!-- 6364547702869357761 -->
<g id="node3" class="node">
<title>6364547702869357761</title>
<polygon fill="none" stroke="black" points="515.79,-450.38 461.79,-450.38 461.79,-414.38 515.79,-414.38 515.79,-450.38"/>
</g>
<!-- 6364547702869357761&#45;&gt;1042782871537545821 -->
<g id="edge2" class="edge">
<title>6364547702869357761&#45;&gt;1042782871537545821</title>
<path fill="none" stroke="black" d="M515.99,-438.35C592.47,-452.35 809.71,-492.11 899.84,-508.61"/>
<polygon fill="black" stroke="black" points="899.47,-512.1 909.94,-510.46 900.73,-505.22 899.47,-512.1"/>
</g>
<!-- 8709615264642240307 -->
<g id="node4" class="node">
<title>8709615264642240307</title>
<polygon fill="none" stroke="black" points="741.79,-450.38 687.79,-450.38 687.79,-414.38 741.79,-414.38 741.79,-450.38"/>
</g>
<!-- 8709615264642240307&#45;&gt;1042782871537545821 -->
<g id="edge3" class="edge">
<title>8709615264642240307&#45;&gt;1042782871537545821</title>
<path fill="none" stroke="black" d="M741.93,-443.33C781.79,-457.95 856.31,-485.3 901.65,-501.93"/>
<polygon fill="black" stroke="black" points="900.54,-505.25 911.14,-505.41 902.95,-498.68 900.54,-505.25"/>
</g>
<!-- 2220795232918448852 -->
<g id="node5" class="node">
<title>2220795232918448852</title>
<polygon fill="none" stroke="black" points="966.79,-450.38 912.79,-450.38 912.79,-414.38 966.79,-414.38 966.79,-450.38"/>
</g>
<!-- 2220795232918448852&#45;&gt;1042782871537545821 -->
<g id="edge4" class="edge">
<title>2220795232918448852&#45;&gt;1042782871537545821</title>
<path fill="none" stroke="black" d="M939.79,-450.48C939.79,-457.96 939.79,-467.07 939.79,-476.1"/>
<polygon fill="black" stroke="black" points="936.29,-476.15 939.79,-486.15 943.29,-476.15 936.29,-476.15"/>
</g>
<!-- &#45;5408627254104881677 -->
<g id="node6" class="node">
<title>&#45;5408627254104881677</title>
<polygon fill="none" stroke="black" points="1192.79,-450.38 1138.79,-450.38 1138.79,-414.38 1192.79,-414.38 1192.79,-450.38"/>
</g>
<!-- &#45;5408627254104881677&#45;&gt;1042782871537545821 -->
<g id="edge5" class="edge">
<title>&#45;5408627254104881677&#45;&gt;1042782871537545821</title>
<path fill="none" stroke="black" d="M1138.53,-443.33C1098.39,-457.99 1023.23,-485.45 977.73,-502.07"/>
<polygon fill="black" stroke="black" points="976.41,-498.82 968.22,-505.54 978.81,-505.4 976.41,-498.82"/>
</g>
<!-- &#45;6194527423300973831 -->
<g id="node7" class="node">
<title>&#45;6194527423300973831</title>
<polygon fill="none" stroke="black" points="1495.79,-450.38 1441.79,-450.38 1441.79,-414.38 1495.79,-414.38 1495.79,-450.38"/>
</g>
<!-- &#45;6194527423300973831&#45;&gt;1042782871537545821 -->
<g id="edge6" class="edge">
<title>&#45;6194527423300973831&#45;&gt;1042782871537545821</title>
<path fill="none" stroke="black" d="M1441.46,-437.64C1354.33,-451.24 1082.76,-493.61 979.86,-509.67"/>
<polygon fill="black" stroke="black" points="979.21,-506.23 969.87,-511.23 980.29,-513.15 979.21,-506.23"/>
</g>
<!-- 4390953544496265804 -->
<g id="node8" class="node">
<title>4390953544496265804</title>
<ellipse fill="none" stroke="black" cx="655.79" cy="-328.98" rx="49.29" ry="49.29"/>
<text text-anchor="middle" x="655.79" y="-325.28" font-family="Helvetica,sans-Serif" font-size="14.00">get_sum</text>
</g>
<!-- 4390953544496265804&#45;&gt;8709615264642240307 -->
<g id="edge7" class="edge">
<title>4390953544496265804&#45;&gt;8709615264642240307</title>
<path fill="none" stroke="black" d="M680.3,-372.1C686.89,-383.43 693.83,-395.35 699.74,-405.51"/>
<polygon fill="black" stroke="black" points="696.78,-407.39 704.84,-414.27 702.83,-403.87 696.78,-407.39"/>
</g>
<!-- 3204938884128917844 -->
<g id="node9" class="node">
<title>3204938884128917844</title>
<polygon fill="none" stroke="black" points="551.79,-243.58 497.79,-243.58 497.79,-207.58 551.79,-207.58 551.79,-243.58"/>
</g>
<!-- 3204938884128917844&#45;&gt;4390953544496265804 -->
<g id="edge8" class="edge">
<title>3204938884128917844&#45;&gt;4390953544496265804</title>
<path fill="none" stroke="black" d="M547.01,-243.79C563.97,-256.91 587.94,-275.46 609.06,-291.81"/>
<polygon fill="black" stroke="black" points="606.94,-294.6 616.99,-297.95 611.23,-289.06 606.94,-294.6"/>
</g>
<!-- 8255630421568306565 -->
<g id="node10" class="node">
<title>8255630421568306565</title>
<polygon fill="none" stroke="black" points="682.79,-243.58 628.79,-243.58 628.79,-207.58 682.79,-207.58 682.79,-243.58"/>
</g>
<!-- 8255630421568306565&#45;&gt;4390953544496265804 -->
<g id="edge9" class="edge">
<title>8255630421568306565&#45;&gt;4390953544496265804</title>
<path fill="none" stroke="black" d="M655.79,-243.79C655.79,-251 655.79,-259.87 655.79,-269.1"/>
<polygon fill="black" stroke="black" points="652.29,-269.2 655.79,-279.2 659.29,-269.2 652.29,-269.2"/>
</g>
<!-- 7049246642654195833 -->
<g id="node11" class="node">
<title>7049246642654195833</title>
<ellipse fill="none" stroke="black" cx="465.79" cy="-85.79" rx="85.59" ry="85.59"/>
<text text-anchor="middle" x="465.79" y="-82.09" font-family="Helvetica,sans-Serif" font-size="14.00">calculate_square</text>
</g>
<!-- 7049246642654195833&#45;&gt;3204938884128917844 -->
<g id="edge10" class="edge">
<title>7049246642654195833&#45;&gt;3204938884128917844</title>
<path fill="none" stroke="black" d="M499.26,-164.95C504.35,-176.85 509.29,-188.38 513.44,-198.07"/>
<polygon fill="black" stroke="black" points="510.3,-199.64 517.46,-207.45 516.74,-196.88 510.3,-199.64"/>
</g>
<!-- 585762543578211671 -->
<g id="node12" class="node">
<title>585762543578211671</title>
<ellipse fill="none" stroke="black" cx="655.79" cy="-85.79" rx="85.59" ry="85.59"/>
<text text-anchor="middle" x="655.79" y="-82.09" font-family="Helvetica,sans-Serif" font-size="14.00">calculate_square</text>
</g>
<!-- 585762543578211671&#45;&gt;8255630421568306565 -->
<g id="edge11" class="edge">
<title>585762543578211671&#45;&gt;8255630421568306565</title>
<path fill="none" stroke="black" d="M655.79,-171.7C655.79,-180.89 655.79,-189.67 655.79,-197.35"/>
<polygon fill="black" stroke="black" points="652.29,-197.39 655.79,-207.39 659.29,-197.39 652.29,-197.39"/>
</g>
<!-- 8979962858712085723 -->
<g id="node13" class="node">
<title>8979962858712085723</title>
<ellipse fill="none" stroke="black" cx="1605.79" cy="-328.98" rx="49.29" ry="49.29"/>
<text text-anchor="middle" x="1605.79" y="-325.28" font-family="Helvetica,sans-Serif" font-size="14.00">get_sum</text>
</g>
<!-- 8979962858712085723&#45;&gt;&#45;6194527423300973831 -->
<g id="edge12" class="edge">
<title>8979962858712085723&#45;&gt;&#45;6194527423300973831</title>
<path fill="none" stroke="black" d="M1566.53,-359.04C1545.36,-374.71 1519.6,-393.77 1499.85,-408.39"/>
<polygon fill="black" stroke="black" points="1497.73,-405.6 1491.78,-414.36 1501.9,-411.23 1497.73,-405.6"/>
</g>
<!-- &#45;7781679669858923981 -->
<g id="node14" class="node">
<title>&#45;7781679669858923981</title>
<polygon fill="none" stroke="black" points="1632.79,-243.58 1578.79,-243.58 1578.79,-207.58 1632.79,-207.58 1632.79,-243.58"/>
</g>
<!-- &#45;7781679669858923981&#45;&gt;8979962858712085723 -->
<g id="edge13" class="edge">
<title>&#45;7781679669858923981&#45;&gt;8979962858712085723</title>
<path fill="none" stroke="black" d="M1605.79,-243.79C1605.79,-251 1605.79,-259.87 1605.79,-269.1"/>
<polygon fill="black" stroke="black" points="1602.29,-269.2 1605.79,-279.2 1609.29,-269.2 1602.29,-269.2"/>
</g>
<!-- &#45;3526740392134894211 -->
<g id="node15" class="node">
<title>&#45;3526740392134894211</title>
<polygon fill="none" stroke="black" points="1763.79,-243.58 1709.79,-243.58 1709.79,-207.58 1763.79,-207.58 1763.79,-243.58"/>
</g>
<!-- &#45;3526740392134894211&#45;&gt;8979962858712085723 -->
<g id="edge14" class="edge">
<title>&#45;3526740392134894211&#45;&gt;8979962858712085723</title>
<path fill="none" stroke="black" d="M1714.57,-243.79C1697.61,-256.91 1673.65,-275.46 1652.53,-291.81"/>
<polygon fill="black" stroke="black" points="1650.36,-289.06 1644.59,-297.95 1654.64,-294.6 1650.36,-289.06"/>
</g>
<!-- 8077089210499002031 -->
<g id="node16" class="node">
<title>8077089210499002031</title>
<ellipse fill="none" stroke="black" cx="1795.79" cy="-85.79" rx="85.59" ry="85.59"/>
<text text-anchor="middle" x="1795.79" y="-82.09" font-family="Helvetica,sans-Serif" font-size="14.00">calculate_square</text>
</g>
<!-- 8077089210499002031&#45;&gt;&#45;3526740392134894211 -->
<g id="edge15" class="edge">
<title>8077089210499002031&#45;&gt;&#45;3526740392134894211</title>
<path fill="none" stroke="black" d="M1762.33,-164.95C1757.23,-176.85 1752.3,-188.38 1748.14,-198.07"/>
<polygon fill="black" stroke="black" points="1744.85,-196.88 1744.13,-207.45 1751.28,-199.64 1744.85,-196.88"/>
</g>
<!-- &#45;484927791991174451 -->
<g id="node17" class="node">
<title>&#45;484927791991174451</title>
<ellipse fill="none" stroke="black" cx="1605.79" cy="-85.79" rx="85.59" ry="85.59"/>
<text text-anchor="middle" x="1605.79" y="-82.09" font-family="Helvetica,sans-Serif" font-size="14.00">calculate_square</text>
</g>
<!-- &#45;484927791991174451&#45;&gt;&#45;7781679669858923981 -->
<g id="edge16" class="edge">
<title>&#45;484927791991174451&#45;&gt;&#45;7781679669858923981</title>
<path fill="none" stroke="black" d="M1605.79,-171.7C1605.79,-180.89 1605.79,-189.67 1605.79,-197.35"/>
<polygon fill="black" stroke="black" points="1602.29,-197.39 1605.79,-207.39 1609.29,-197.39 1602.29,-197.39"/>
</g>
<!-- 2801330572320123170 -->
<g id="node18" class="node">
<title>2801330572320123170</title>
<ellipse fill="none" stroke="black" cx="939.79" cy="-328.98" rx="49.29" ry="49.29"/>
<text text-anchor="middle" x="939.79" y="-325.28" font-family="Helvetica,sans-Serif" font-size="14.00">get_sum</text>
</g>
<!-- 2801330572320123170&#45;&gt;2220795232918448852 -->
<g id="edge17" class="edge">
<title>2801330572320123170&#45;&gt;2220795232918448852</title>
<path fill="none" stroke="black" d="M939.79,-378.6C939.79,-387.4 939.79,-396.29 939.79,-404.2"/>
<polygon fill="black" stroke="black" points="936.29,-404.28 939.79,-414.28 943.29,-404.28 936.29,-404.28"/>
</g>
<!-- &#45;1721371026218627728 -->
<g id="node19" class="node">
<title>&#45;1721371026218627728</title>
<polygon fill="none" stroke="black" points="901.79,-243.58 847.79,-243.58 847.79,-207.58 901.79,-207.58 901.79,-243.58"/>
</g>
<!-- &#45;1721371026218627728&#45;&gt;2801330572320123170 -->
<g id="edge18" class="edge">
<title>&#45;1721371026218627728&#45;&gt;2801330572320123170</title>
<path fill="none" stroke="black" d="M885.82,-243.79C892,-253.43 900.05,-265.99 908.05,-278.46"/>
<polygon fill="black" stroke="black" points="905.21,-280.51 913.55,-287.04 911.1,-276.73 905.21,-280.51"/>
</g>
<!-- &#45;7942334585535607839 -->
<g id="node20" class="node">
<title>&#45;7942334585535607839</title>
<polygon fill="none" stroke="black" points="1003.79,-243.58 949.79,-243.58 949.79,-207.58 1003.79,-207.58 1003.79,-243.58"/>
</g>
<!-- &#45;7942334585535607839&#45;&gt;2801330572320123170 -->
<g id="edge19" class="edge">
<title>&#45;7942334585535607839&#45;&gt;2801330572320123170</title>
<path fill="none" stroke="black" d="M970.52,-243.79C967.55,-251.92 963.82,-262.13 960,-272.61"/>
<polygon fill="black" stroke="black" points="956.61,-271.67 956.47,-282.27 963.19,-274.07 956.61,-271.67"/>
</g>
<!-- 8396647805507397881 -->
<g id="node21" class="node">
<title>8396647805507397881</title>
<ellipse fill="none" stroke="black" cx="845.79" cy="-85.79" rx="85.59" ry="85.59"/>
<text text-anchor="middle" x="845.79" y="-82.09" font-family="Helvetica,sans-Serif" font-size="14.00">calculate_square</text>
</g>
<!-- 8396647805507397881&#45;&gt;&#45;1721371026218627728 -->
<g id="edge20" class="edge">
<title>8396647805507397881&#45;&gt;&#45;1721371026218627728</title>
<path fill="none" stroke="black" d="M863.33,-170.13C865.39,-179.9 867.36,-189.27 869.07,-197.39"/>
<polygon fill="black" stroke="black" points="865.67,-198.23 871.15,-207.29 872.52,-196.78 865.67,-198.23"/>
</g>
<!-- 1153874672737596404 -->
<g id="node22" class="node">
<title>1153874672737596404</title>
<ellipse fill="none" stroke="black" cx="1035.79" cy="-85.79" rx="85.59" ry="85.59"/>
<text text-anchor="middle" x="1035.79" y="-82.09" font-family="Helvetica,sans-Serif" font-size="14.00">calculate_square</text>
</g>
<!-- 1153874672737596404&#45;&gt;&#45;7942334585535607839 -->
<g id="edge21" class="edge">
<title>1153874672737596404&#45;&gt;&#45;7942334585535607839</title>
<path fill="none" stroke="black" d="M1002.33,-164.95C997.23,-176.85 992.3,-188.38 988.14,-198.07"/>
<polygon fill="black" stroke="black" points="984.85,-196.88 984.13,-207.45 991.28,-199.64 984.85,-196.88"/>
</g>
<!-- 8517197945863132585 -->
<g id="node23" class="node">
<title>8517197945863132585</title>
<ellipse fill="none" stroke="black" cx="275.79" cy="-328.98" rx="49.29" ry="49.29"/>
<text text-anchor="middle" x="275.79" y="-325.28" font-family="Helvetica,sans-Serif" font-size="14.00">get_sum</text>
</g>
<!-- 8517197945863132585&#45;&gt;6364547702869357761 -->
<g id="edge22" class="edge">
<title>8517197945863132585&#45;&gt;6364547702869357761</title>
<path fill="none" stroke="black" d="M320.18,-351.11C359.36,-369.76 415.76,-396.61 452.34,-414.03"/>
<polygon fill="black" stroke="black" points="451.12,-417.32 461.65,-418.46 454.13,-411 451.12,-417.32"/>
</g>
<!-- 3118020210923095049 -->
<g id="node24" class="node">
<title>3118020210923095049</title>
<polygon fill="none" stroke="black" points="171.79,-243.58 117.79,-243.58 117.79,-207.58 171.79,-207.58 171.79,-243.58"/>
</g>
<!-- 3118020210923095049&#45;&gt;8517197945863132585 -->
<g id="edge23" class="edge">
<title>3118020210923095049&#45;&gt;8517197945863132585</title>
<path fill="none" stroke="black" d="M167.01,-243.79C183.97,-256.91 207.94,-275.46 229.06,-291.81"/>
<polygon fill="black" stroke="black" points="226.94,-294.6 236.99,-297.95 231.23,-289.06 226.94,-294.6"/>
</g>
<!-- 746844957212106083 -->
<g id="node25" class="node">
<title>746844957212106083</title>
<polygon fill="none" stroke="black" points="302.79,-243.58 248.79,-243.58 248.79,-207.58 302.79,-207.58 302.79,-243.58"/>
</g>
<!-- 746844957212106083&#45;&gt;8517197945863132585 -->
<g id="edge24" class="edge">
<title>746844957212106083&#45;&gt;8517197945863132585</title>
<path fill="none" stroke="black" d="M275.79,-243.79C275.79,-251 275.79,-259.87 275.79,-269.1"/>
<polygon fill="black" stroke="black" points="272.29,-269.2 275.79,-279.2 279.29,-269.2 272.29,-269.2"/>
</g>
<!-- &#45;6082104973799914092 -->
<g id="node26" class="node">
<title>&#45;6082104973799914092</title>
<ellipse fill="none" stroke="black" cx="275.79" cy="-85.79" rx="85.59" ry="85.59"/>
<text text-anchor="middle" x="275.79" y="-82.09" font-family="Helvetica,sans-Serif" font-size="14.00">calculate_square</text>
</g>
<!-- &#45;6082104973799914092&#45;&gt;746844957212106083 -->
<g id="edge25" class="edge">
<title>&#45;6082104973799914092&#45;&gt;746844957212106083</title>
<path fill="none" stroke="black" d="M275.79,-171.7C275.79,-180.89 275.79,-189.67 275.79,-197.35"/>
<polygon fill="black" stroke="black" points="272.29,-197.39 275.79,-207.39 279.29,-197.39 272.29,-197.39"/>
</g>
<!-- 4603561217601647084 -->
<g id="node27" class="node">
<title>4603561217601647084</title>
<ellipse fill="none" stroke="black" cx="85.79" cy="-85.79" rx="85.59" ry="85.59"/>
<text text-anchor="middle" x="85.79" y="-82.09" font-family="Helvetica,sans-Serif" font-size="14.00">calculate_square</text>
</g>
<!-- 4603561217601647084&#45;&gt;3118020210923095049 -->
<g id="edge26" class="edge">
<title>4603561217601647084&#45;&gt;3118020210923095049</title>
<path fill="none" stroke="black" d="M119.26,-164.95C124.35,-176.85 129.29,-188.38 133.44,-198.07"/>
<polygon fill="black" stroke="black" points="130.3,-199.64 137.46,-207.45 136.74,-196.88 130.3,-199.64"/>
</g>
<!-- &#45;6516702869880052013 -->
<g id="node28" class="node">
<title>&#45;6516702869880052013</title>
<ellipse fill="none" stroke="black" cx="1225.79" cy="-328.98" rx="49.29" ry="49.29"/>
<text text-anchor="middle" x="1225.79" y="-325.28" font-family="Helvetica,sans-Serif" font-size="14.00">get_sum</text>
</g>
<!-- &#45;6516702869880052013&#45;&gt;&#45;5408627254104881677 -->
<g id="edge27" class="edge">
<title>&#45;6516702869880052013&#45;&gt;&#45;5408627254104881677</title>
<path fill="none" stroke="black" d="M1201.04,-371.81C1194.32,-383.17 1187.23,-395.14 1181.19,-405.35"/>
<polygon fill="black" stroke="black" points="1178.06,-403.77 1175.98,-414.16 1184.08,-407.34 1178.06,-403.77"/>
</g>
<!-- &#45;98295018487855191 -->
<g id="node29" class="node">
<title>&#45;98295018487855191</title>
<polygon fill="none" stroke="black" points="1252.79,-243.58 1198.79,-243.58 1198.79,-207.58 1252.79,-207.58 1252.79,-243.58"/>
</g>
<!-- &#45;98295018487855191&#45;&gt;&#45;6516702869880052013 -->
<g id="edge28" class="edge">
<title>&#45;98295018487855191&#45;&gt;&#45;6516702869880052013</title>
<path fill="none" stroke="black" d="M1225.79,-243.79C1225.79,-251 1225.79,-259.87 1225.79,-269.1"/>
<polygon fill="black" stroke="black" points="1222.29,-269.2 1225.79,-279.2 1229.29,-269.2 1222.29,-269.2"/>
</g>
<!-- &#45;2618551985137043215 -->
<g id="node30" class="node">
<title>&#45;2618551985137043215</title>
<polygon fill="none" stroke="black" points="1383.79,-243.58 1329.79,-243.58 1329.79,-207.58 1383.79,-207.58 1383.79,-243.58"/>
</g>
<!-- &#45;2618551985137043215&#45;&gt;&#45;6516702869880052013 -->
<g id="edge29" class="edge">
<title>&#45;2618551985137043215&#45;&gt;&#45;6516702869880052013</title>
<path fill="none" stroke="black" d="M1334.57,-243.79C1317.61,-256.91 1293.65,-275.46 1272.53,-291.81"/>
<polygon fill="black" stroke="black" points="1270.36,-289.06 1264.59,-297.95 1274.64,-294.6 1270.36,-289.06"/>
</g>
<!-- 6708776144637452709 -->
<g id="node31" class="node">
<title>6708776144637452709</title>
<ellipse fill="none" stroke="black" cx="1225.79" cy="-85.79" rx="85.59" ry="85.59"/>
<text text-anchor="middle" x="1225.79" y="-82.09" font-family="Helvetica,sans-Serif" font-size="14.00">calculate_square</text>
</g>
<!-- 6708776144637452709&#45;&gt;&#45;98295018487855191 -->
<g id="edge30" class="edge">
<title>6708776144637452709&#45;&gt;&#45;98295018487855191</title>
<path fill="none" stroke="black" d="M1225.79,-171.7C1225.79,-180.89 1225.79,-189.67 1225.79,-197.35"/>
<polygon fill="black" stroke="black" points="1222.29,-197.39 1225.79,-207.39 1229.29,-197.39 1222.29,-197.39"/>
</g>
<!-- &#45;38344310479269723 -->
<g id="node32" class="node">
<title>&#45;38344310479269723</title>
<ellipse fill="none" stroke="black" cx="1415.79" cy="-85.79" rx="85.59" ry="85.59"/>
<text text-anchor="middle" x="1415.79" y="-82.09" font-family="Helvetica,sans-Serif" font-size="14.00">calculate_square</text>
</g>
<!-- &#45;38344310479269723&#45;&gt;&#45;2618551985137043215 -->
<g id="edge31" class="edge">
<title>&#45;38344310479269723&#45;&gt;&#45;2618551985137043215</title>
<path fill="none" stroke="black" d="M1382.33,-164.95C1377.23,-176.85 1372.3,-188.38 1368.14,-198.07"/>
<polygon fill="black" stroke="black" points="1364.85,-196.88 1364.13,-207.45 1371.28,-199.64 1364.85,-196.88"/>
</g>
</g>
</svg>
